HIERARCHY
ROOT Hips
{
	OFFSET -0.001795 -0.223333 0.028219
	CHANNELS 6 Xposition Yposition Zposition Zrotation Yrotation Xrotation 
	JOINT LeftUpLeg
	{
		OFFSET 0.069520 -0.091406 -0.006815
		CHANNELS 3 Zrotation Yrotation Xrotation
		JOINT LeftLeg
		{
			OFFSET 0.034277 -0.375199 -0.004496
			CHANNELS 3 Zrotation Yrotation Xrotation
			JOINT LeftFoot
			{
				OFFSET -0.013596 -0.397961 -0.043693
				CHANNELS 3 Zrotation Yrotation Xrotation
				JOINT LeftToe
				{
					OFFSET 0.026358 -0.055791 0.119288
					CHANNELS 3 Zrotation Yrotation Xrotation
					End Site
					{
						OFFSET 0.000000 0.000000 0.000000
					}
				}
			}
		}
	}
	JOINT RightUpLeg
	{
		OFFSET -0.067670 -0.090522 -0.004320
		CHANNELS 3 Zrotation Yrotation Xrotation
		JOINT RightLeg
		{
			OFFSET -0.038290 -0.382569 -0.008850
			CHANNELS 3 Zrotation Yrotation Xrotation
			JOINT RightFoot
			{
				OFFSET 0.015774 -0.398415 -0.042312
				CHANNELS 3 Zrotation Yrotation Xrotation
				JOINT RightToe
				{
					OFFSET -0.025372 -0.048144 0.123348
					CHANNELS 3 Zrotation Yrotation Xrotation
					End Site
					{
						OFFSET 0.000000 0.000000 0.000000
					}
				}
			}
		}
	}
	JOINT Spine
	{
		OFFSET -0.002533 0.108963 -0.026696
		CHANNELS 3 Zrotation Yrotation Xrotation
		JOINT Spine1
		{
			OFFSET 0.005487 0.135180 0.001092
			CHANNELS 3 Zrotation Yrotation Xrotation
			JOINT Spine2
			{
				OFFSET 0.001457 0.052922 0.025425
				CHANNELS 3 Zrotation Yrotation Xrotation
				JOINT Neck
				{
					OFFSET -0.002778 0.213870 -0.042857
					CHANNELS 3 Zrotation Yrotation Xrotation
					JOINT Head
					{
						OFFSET 0.005152 0.064970 0.051349
						CHANNELS 3 Zrotation Yrotation Xrotation
						End Site
						{
							OFFSET 0.000000 0.000000 0.000000
						}
					}
				}
				JOINT LeftShoulder
				{
					OFFSET 0.078845 0.121749 -0.034090
					CHANNELS 3 Zrotation Yrotation Xrotation
					JOINT LeftArm
					{
						OFFSET 0.090977 0.030469 -0.008868
						CHANNELS 3 Zrotation Yrotation Xrotation
						JOINT LeftForeArm
						{
							OFFSET 0.259612 -0.012772 -0.027456
							CHANNELS 3 Zrotation Yrotation Xrotation
							JOINT LeftHand
							{
								OFFSET 0.249234 0.008986 -0.001171
								CHANNELS 3 Zrotation Yrotation Xrotation
								End Site
								{
									OFFSET 0.000000 0.000000 0.000000
								}
							}
						}
					}
				}
				JOINT RightShoulder
				{
					OFFSET -0.081759 0.118833 -0.038615
					CHANNELS 3 Zrotation Yrotation Xrotation
					JOINT RightArm
					{
						OFFSET -0.096012 0.032551 -0.009143
						CHANNELS 3 Zrotation Yrotation Xrotation
						JOINT RightForeArm
						{
							OFFSET -0.253742 -0.013329 -0.021401
							CHANNELS 3 Zrotation Yrotation Xrotation
							JOINT RightHand
							{
								OFFSET -0.255298 0.007772 -0.005559
								CHANNELS 3 Zrotation Yrotation Xrotation
								End Site
								{
									OFFSET 0.000000 0.000000 0.000000
								}
							}
						}
					}
				}
			}
		}
	}
}
MOTION
Frames: 9
Frame Time: 0.050000
-1.892238 0.885080 -0.171714 -7.577216 -82.884395 6.225814 -3.727070 3.372129 -26.470098 0.482313 2.231235 11.795641 -2.844261 -3.283798 4.435816 0.000000 0.000000 0.000000 0.199492 5.027924 20.616176 1.941800 2.387534 17.927719 0.422669 7.041691 -3.632385 0.000000 0.000000 0.000000 3.665590 -0.236980 4.448049 -5.556592 5.228527 3.810037 -1.279613 14.330789 2.129168 5.728530 -4.985324 -13.461257 0.000000 0.000000 0.000000 -32.286039 -1.663447 10.663079 -33.654258 8.496360 -8.792176 8.075595 -71.810350 1.479252 0.000000 0.000000 0.000000 11.659572 12.508586 -1.394499 40.765212 0.851773 -1.855481 102.479155 78.305342 78.194898 0.000000 0.000000 0.000000 
-1.946197 0.886276 -0.159635 -8.312899 -82.239413 8.681604 -4.826585 2.518535 -25.277850 1.460823 1.789271 11.323381 -3.335841 -2.881883 0.075009 0.000000 0.000000 0.000000 1.084315 3.771997 18.238914 1.176040 3.887924 22.624657 -0.820829 3.353288 -2.223623 0.000000 0.000000 0.000000 2.883741 -0.231280 3.913206 -7.261928 4.841006 0.861420 1.220262 12.957276 3.895183 5.526830 -5.006733 -15.669329 0.000000 0.000000 0.000000 -32.199195 0.284943 10.557785 -35.533014 7.365275 -9.247506 13.375489 -70.881333 -1.251932 0.000000 0.000000 0.000000 12.094329 12.441791 -2.236573 42.481205 1.262649 -1.688048 98.417724 77.564633 71.571596 0.000000 0.000000 0.000000 
-2.000464 0.888866 -0.147160 -5.580612 -80.774702 6.554969 -5.697078 1.720467 -24.151301 1.905450 2.133151 13.315316 -4.733764 -4.540444 -2.477391 0.000000 0.000000 0.000000 1.041755 2.859976 15.656856 2.055838 5.572097 27.921535 0.747796 1.584742 1.491416 0.000000 0.000000 0.000000 1.861586 -0.171468 2.575761 -6.727283 4.390658 0.729060 0.749045 13.177151 3.899345 5.461928 -4.983978 -15.554582 0.000000 0.000000 0.000000 -33.536496 0.478671 10.561543 -33.359362 7.461260 -8.830044 17.883264 -72.108352 -5.003160 0.000000 0.000000 0.000000 14.306289 10.043450 -3.886551 41.507119 -2.155494 -2.613415 97.188082 73.208761 66.928665 0.000000 0.000000 0.000000 
-2.054117 0.894707 -0.133738 -1.861292 -78.624908 3.016664 -6.543102 0.724844 -21.936841 1.988156 2.407674 14.573600 -5.573321 -5.978235 -3.477064 0.000000 0.000000 0.000000 -0.868262 1.747970 9.790869 7.574560 8.878843 39.523411 3.615444 -0.506888 7.962366 0.000000 0.000000 0.000000 -0.333725 -0.049175 1.635305 -5.929573 4.272165 1.800897 0.685071 12.214966 2.753859 5.519512 -4.874119 -15.694983 0.000000 0.000000 0.000000 -33.967054 0.235091 10.150380 -33.266876 7.035548 -8.526889 21.014645 -72.254889 -7.496607 0.000000 0.000000 0.000000 14.509977 7.982268 -4.337390 42.973150 -5.730081 -4.325188 87.803212 69.114705 55.187232 0.000000 0.000000 0.000000 
-2.104787 0.903596 -0.119862 -1.606768 -76.483211 1.636747 -6.826470 -0.367420 -17.177501 1.554679 2.366510 13.832185 -6.481678 -7.176527 -5.107351 0.000000 0.000000 0.000000 -1.771405 1.013424 4.468001 13.311719 11.036682 49.267413 0.759368 -6.545080 10.391560 0.000000 0.000000 0.000000 -0.307990 -0.066402 2.092495 -5.735368 3.927245 1.425699 0.557349 10.389259 3.750936 5.260813 -4.811885 -15.080288 0.000000 0.000000 0.000000 -32.778037 0.281659 10.040040 -34.077444 6.757725 -8.626840 27.019632 -74.112833 -11.802705 0.000000 0.000000 0.000000 14.516069 6.990658 -4.869533 42.539889 -8.367043 -5.316706 81.472904 65.350914 46.454672 0.000000 0.000000 0.000000 
-2.151679 0.913564 -0.106223 -2.293728 -74.816249 1.146470 -7.149467 -0.979134 -11.998441 1.727660 2.055894 12.908819 -7.565322 -8.867378 -6.449523 0.000000 0.000000 0.000000 -3.797833 0.920110 -2.297761 20.549462 10.667468 55.996715 -2.619204 -11.074123 9.617727 0.000000 0.000000 0.000000 0.369802 -0.119276 2.871322 -6.715590 4.540610 1.895570 1.120411 7.499231 3.210408 3.935853 -4.057267 -15.293135 0.000000 0.000000 0.000000 -30.408370 0.388708 9.538245 -35.486074 6.007559 -8.505036 29.119529 -73.262101 -12.436378 0.000000 0.000000 0.000000 14.308803 6.104779 -5.452674 42.529953 -10.848053 -6.176768 76.189743 61.543078 38.795924 0.000000 0.000000 0.000000 
-2.195913 0.924581 -0.093148 -4.132965 -72.182359 1.458290 -7.357285 -1.040759 -6.651577 2.433216 1.334405 11.305255 -7.587922 -9.579169 -4.997709 0.000000 0.000000 0.000000 -5.320356 1.308154 -8.616879 24.855954 9.107994 57.824854 -6.237821 -16.698727 8.986039 0.000000 0.000000 0.000000 1.682217 -0.179520 3.481989 -6.389930 4.500313 2.501595 0.604622 4.184123 3.003967 2.463321 -3.281381 -15.080112 0.000000 0.000000 0.000000 -29.777980 0.721049 9.610833 -35.021060 4.476897 -8.125926 34.324525 -72.042544 -15.573009 0.000000 0.000000 0.000000 14.109528 5.994888 -5.812464 42.438571 -11.672396 -6.342944 69.683083 58.233650 31.261199 0.000000 0.000000 0.000000 
-2.237444 0.933029 -0.081435 -6.033223 -69.858643 1.662355 -6.602710 -0.541906 -1.600375 3.135044 0.910129 10.842314 -8.420828 -11.537774 -5.624594 0.000000 0.000000 0.000000 -5.889031 1.880338 -13.697968 22.888033 8.752906 55.278780 -8.519112 -19.271420 5.135153 0.000000 0.000000 0.000000 2.871905 -0.223162 5.080283 -6.403126 4.090155 1.553018 0.723243 2.437579 4.415584 1.715486 -2.988659 -16.387287 0.000000 0.000000 0.000000 -27.171753 0.808746 8.915784 -36.218215 1.524519 -7.536434 34.117133 -72.387577 -14.399199 0.000000 0.000000 0.000000 15.135309 5.830329 -6.606753 40.696465 -12.500360 -6.059000 65.276420 55.724857 27.061202 0.000000 0.000000 0.000000 
-2.277189 0.937288 -0.071510 -6.345676 -66.109343 1.726060 -6.647720 -0.007630 1.786289 4.587091 0.070498 9.407565 -8.998425 -13.645122 -5.851269 0.000000 0.000000 0.000000 -5.984033 2.563316 -17.902317 15.470064 8.489937 47.649498 -8.096335 -17.001930 1.562650 0.000000 0.000000 0.000000 3.315903 -0.238066 5.318868 -5.823078 3.577144 1.254418 0.029460 -0.011895 5.019402 1.688296 -3.036609 -16.611494 0.000000 0.000000 0.000000 -26.079848 -0.230558 9.437742 -35.374004 -1.712956 -6.623135 44.925584 -70.592195 -21.313533 0.000000 0.000000 0.000000 15.605135 6.160003 -6.852985 40.078485 -13.409958 -6.118593 59.602610 52.082438 21.828924 0.000000 0.000000 0.000000 
